<?xml version="1.0" encoding="UTF-8"?>
<svg id="Layer_1" data-name="Layer 1" xmlns="http://www.w3.org/2000/svg" viewBox="0 0 1080 1080">
  <defs>
    <style>
      .cls-1 {
        stroke: #495ca4;
      }

      .cls-1, .cls-2, .cls-3 {
        fill: #495ca4;
      }

      .cls-2 {
        stroke-miterlimit: 10;
        stroke-width: 5px;
      }

      .cls-2, .cls-4 {
        stroke: #f5f6f6;
      }

      .cls-4 {
        fill: none;
        stroke-width: 29px;
      }
    </style>
  </defs>
  <g id="urLShy.tif">
    <g>
      <path class="cls-1" d="M538.65,870.61c-5.11,10.95-17.98,9.6-27.96,10.32-19.09,1.38-42.65,3.29-61.61,1.74-1.86-.15-3.12-.77-4.84-1.17-7.44,16.56-29.86,15.3-45.13,13.73-14.49-1.48-30.93-4.55-45.15-7.8-7.1-1.63-25.09-5.23-29.46-10.26-2.31-2.66-2.32-2.6-4.89-4.89s-4.22-4.9-4.85-8.39c-1.77-9.8-2.12-23.62-2.92-33.92-6.03-77.88-8.52-159.1-5.16-237.09.22-5.15-1.03-11.66,1.58-16.26.51-.91,6.6-8.3,7.31-8.8,4.55-3.23,12.66-1.36,17.85-1.15,21.28.84,42.43,2.98,63.59,5.18l-5.17-46.33c-.13-8.64-1.36-17.26-1.76-25.87-.27-5.86-1.06-15.29-.57-20.76.45-5.15,3.68-10.15,9.08-11.06,6.56-1.12,21.45-.45,28.66-.16,21.61.85,65.62,5.99,84.85,14.72,16.47,7.47,15.32,22.4,15.56,38.26l38.87.55c21.35,2.33,43.6.37,64.14,7.51l.59-27.33c2.44-28.34,14.56-36.7,42.29-35.39,23.58,1.11,50.76,3.19,74.25,5.75,11.64,1.27,22.03,3,26.87,15.14,5.51,13.81.39,38.96-.67,54.21-6.86,98.62-8.57,197.54-5.21,296.41.35,10.26,1.54,20.73,1.77,31.03.18,7.87-.02,16.71-10.07,17.6-6.68.59-13.56-.47-20.14-.62-28.26-.67-58.38-.29-86.38-2.25-6.27-.44-8.47-3.46-11.5-4.04-4.04-.77-11.53.18-16.13.01-20.64-.75-41.51-2.25-62.06-4.7-8.57-1.02-17.15-2.39-25.62-3.91ZM753.18,495.4c-21.12-2.03-42.34-3.1-63.51-4.69-8.36-.63-22.4-3.73-30.07-1.28-4.72,1.51-4.9,9.91-5.33,14.24-1.37,13.64-1.35,28.3-1.18,42.03.06,4.91,1.71,9.38-.44,14.48-.56,1.33-2.32,3.01-2.37,3.87-.21,3.74,1.9,12.24,2.25,16.74,2.2,28.29,1.21,57.35,1.71,85.77.9,51.73,2.21,103.62,2.93,155.34.18,12.74-.65,25.63.58,38.27l89.18,2.91c-.14-7.96-.26-15.95-.55-23.91-3.86-104.8-2.47-208.98,5.74-313.63.78-9.95,3.92-20.31,1.06-30.14ZM517.22,857.24c0-6.39.27-12.83.1-19.22-2.39-93.97-7.84-187.96-11.56-281.96-.59-15,.15-31.98-1.11-46.66-.5-5.86-1.89-6.85-7.26-8.28-10.55-2.82-24.27-5.21-35.16-6.85-16.23-2.45-32.69-3.53-49.11-3.55.38,9.09.54,18.26,1.16,27.33,2.55,37.45,8.76,74.59,13.16,111.73,9.07,76.54,16.58,153.31,19.64,230.43,12.46-1.31,25.17-.19,37.72-.55,1.36-.04,2.62-.58,3.98-.62,3.49-.12,27.66-.54,28.43-1.78ZM634.13,856.17c-.21-23.54-.22-46.98-.55-70.53-.86-60.85-1.02-122.1-2.88-183.02-.38-12.35-1.34-37.31-5.76-48.34-3.18-7.93-11.12-5.87-18.14-6.61-13.41-1.41-26.81-2.57-40.27-3.47l-37.72-.55,11.59,304.09c.53,1.62,3.9.75,5.38.95,15.34,2,30.59,4.55,46.05,5.74l42.3,1.74ZM423.93,871.58c1.56-1.51-.33-16.59-.47-19.7-3.4-74.23-9.41-148.48-19.04-222.1-.75-5.75-3.34-29.63-6.24-32.89-1.94-2.18-7.82-2.66-10.74-3.07-12.3-1.73-26.61-2.77-39.07-3.52-6.2-.37-12.49-.46-18.7-.58-2.91,88.04-.2,176.12,7.48,263.89.15,1.68-.09,3.4-.02,5.08,15.08,5.23,31.16,8.88,47.03,11.22,9.37,1.38,20.38,2.77,29.81,3,2.12.05,8.53.09,9.96-1.31Z"/>
      <path class="cls-1" d="M833.06,421.85c6.74,6.26,5.98,12.3,1.24,19.55-9.32,14.25-25.27,14.19-40.04,9.76-16.55-4.96-35.67-13.44-51.92-20.02-72.65-29.39-143.16-63.77-211.51-101.95l-176.58,100.63c-31.77,19.89-62.58,41.84-95.06,60.33-10.13,1.26-12.72-5.57-14.98-13.83-1.88-6.89-2.54-14.47-2.04-21.6.26-3.76.83-7.47,3.53-10.28,52.27-31.34,104.37-63.09,156.89-94.04,30.69-18.09,65.2-40.26,97.63-54.31,38.29-16.59,60.88,1.52,94.38,16.89,79.41,36.44,159.51,71.54,238.46,108.87Z"/>
      <path class="cls-1" d="M684.04,791.27c4.6-.93,10.79.31,15.39.47,7.37.26,19.5-.29,26.23,1.4,9.78,2.46,11.29,17,1.84,21.45-4.86,2.29-14.89.36-20.54.13-6.23-.26-17.88.36-23.33-1.42-10.89-3.56-10.01-19.91.41-22.02Z"/>
      <path class="cls-1" d="M681.74,511c2.47-.42,7.44.23,10.22.44,5.63.41,19.05,1.15,23.73,2.75,11.28,3.85,9.36,20.73-1.85,22-6.01.68-25.18-1.22-31.51-2.45-13.43-2.6-12.18-20.77-.59-22.73Z"/>
      <path class="cls-1" d="M561.49,810.26c4.68-.49,12.46,1.89,17.65,2.19,6.19.36,12.33-.42,18.41-.62,6.52-.21,12.54,2.4,13.5,9.57,1.5,11.25-8.11,13.48-16.93,14.05-7.95.51-28.89-.18-35.96-3.16-9.67-4.07-8.05-20.83,3.33-22.02Z"/>
      <path class="cls-1" d="M565.84,586.62c-6.87-6.4-3.05-18.15,6.1-19.68,4.53-.76,6.16,1.06,10.11,1.46,7.71.79,15.93-3.78,21.57,3.75,4.23,5.65,2.48,13.69-3.72,16.99-7.52,4.01-27.65,3.45-34.06-2.52Z"/>
      <path class="cls-1" d="M449.27,517.93c8.31-.78,26.76.45,30.74,9.2,2.5,5.5.39,12.61-5.17,15.22-7.31,3.43-10.93-.99-17.7-1.56-6.16-.52-12.17,2.64-17.44,1.32-7.5-1.88-10.64-11.34-6.34-17.64,3.16-4.63,10.6-6.05,15.9-6.54Z"/>
      <path class="cls-1" d="M487.83,792.46c4.91-.28,8.8-.63,12.43,3.34,6.21,6.78,2.15,18.08-6.88,19.48-4.83.75-16.65,1.98-21.27,1.8-13.13-.52-15.13-20.2-1.1-23.01,4.35-.87,12.18-1.35,16.81-1.61Z"/>
      <path class="cls-1" d="M378.49,619.79c13.91-.69,17.03,17.18,6.25,21.82-7.22,3.11-29.54,3.38-37.26,1.36-10.55-2.75-11.53-17.04-1.92-21.55,4.58-2.15,13.88.12,19.53-.04,4.26-.12,9.26-1.39,13.4-1.59Z"/>
      <path class="cls-1" d="M369.28,802.2c4.05-.22,10.72,2.07,15.37,2.16,7.57.15,16.6-4.02,22.15,3.17,4.31,5.59,2.58,14.9-4.19,17.67-7.41,3.03-30.4,2.29-37.76-1.04-10.29-4.66-7.58-21.32,4.44-21.97Z"/>
    </g>
  </g>
  <g>
    <path class="cls-2" d="M694.84,336.19c-2.95-.64-4.1-2.44-3.46-5.38l11.82-60.81c.64-2.94,2.43-4.1,5.38-3.46l12.24,2.67c16.09,3.51,28.91,2.68,38.46-2.48,9.55-5.16,15.59-13.52,18.11-25.08,2.22-10.2.81-18.99-4.22-26.38-5.04-7.38-13.11-12.29-24.21-14.71-18.13-3.95-33.12,2.17-44.95,18.34-1.9,2.2-4.03,2.68-6.37,1.46l-33.69-16.96c-1.26-.75-2.08-1.64-2.45-2.67-.37-1.03-.18-2.18.57-3.44,10.67-17.38,24.8-29.67,42.4-36.88,17.59-7.21,36.81-8.54,57.67-3.99,15.64,3.41,28.79,9.48,39.48,18.21,10.68,8.74,18.21,19.4,22.59,31.99,4.38,12.59,4.96,26.25,1.75,40.98-4.4,20.17-14.26,36.3-29.59,48.39-15.34,12.09-34.16,17.61-56.48,16.54l-6.68,27.39c-.64,2.95-2.44,4.1-5.38,3.46l-32.98-7.19ZM677.67,400.28c-4.16-6.01-5.39-12.86-3.71-20.57,1.68-7.7,5.64-13.37,11.89-16.99,6.25-3.62,13.23-4.6,20.93-2.92,7.7,1.68,13.64,5.46,17.82,11.36,4.17,5.89,5.42,12.7,3.74,20.4-1.68,7.71-5.66,13.43-11.93,17.16-6.28,3.73-13.27,4.77-20.97,3.09-7.71-1.68-13.64-5.53-17.79-11.53Z"/>
    <path class="cls-4" d="M694.84,336.19c-2.95-.64-4.1-2.44-3.46-5.38l11.82-60.81c.64-2.94,2.43-4.1,5.38-3.46l12.24,2.67c16.09,3.51,28.91,2.68,38.46-2.48,9.55-5.16,15.59-13.52,18.11-25.08,2.22-10.2.81-18.99-4.22-26.38-5.04-7.38-13.11-12.29-24.21-14.71-18.13-3.95-33.12,2.17-44.95,18.34-1.9,2.2-4.03,2.68-6.37,1.46l-33.69-16.96c-1.26-.75-2.08-1.64-2.45-2.67-.37-1.03-.18-2.18.57-3.44,10.67-17.38,24.8-29.67,42.4-36.88,17.59-7.21,36.81-8.54,57.67-3.99,15.64,3.41,28.79,9.48,39.48,18.21,10.68,8.74,18.21,19.4,22.59,31.99,4.38,12.59,4.96,26.25,1.75,40.98-4.4,20.17-14.26,36.3-29.59,48.39-15.34,12.09-34.16,17.61-56.48,16.54l-6.68,27.39c-.64,2.95-2.44,4.1-5.38,3.46l-32.98-7.19ZM677.67,400.28c-4.16-6.01-5.39-12.86-3.71-20.57,1.68-7.7,5.64-13.37,11.89-16.99,6.25-3.62,13.23-4.6,20.93-2.92,7.7,1.68,13.64,5.46,17.82,11.36,4.17,5.89,5.42,12.7,3.74,20.4-1.68,7.71-5.66,13.43-11.93,17.16-6.28,3.73-13.27,4.77-20.97,3.09-7.71-1.68-13.64-5.53-17.79-11.53Z"/>
    <path class="cls-3" d="M694.84,336.19c-2.95-.64-4.1-2.44-3.46-5.38l11.82-60.81c.64-2.94,2.43-4.1,5.38-3.46l12.24,2.67c16.09,3.51,28.91,2.68,38.46-2.48,9.55-5.16,15.59-13.52,18.11-25.08,2.22-10.2.81-18.99-4.22-26.38-5.04-7.38-13.11-12.29-24.21-14.71-18.13-3.95-33.12,2.17-44.95,18.34-1.9,2.2-4.03,2.68-6.37,1.46l-33.69-16.96c-1.26-.75-2.08-1.64-2.45-2.67-.37-1.03-.18-2.18.57-3.44,10.67-17.38,24.8-29.67,42.4-36.88,17.59-7.21,36.81-8.54,57.67-3.99,15.64,3.41,28.79,9.48,39.48,18.21,10.68,8.74,18.21,19.4,22.59,31.99,4.38,12.59,4.96,26.25,1.75,40.98-4.4,20.17-14.26,36.3-29.59,48.39-15.34,12.09-34.16,17.61-56.48,16.54l-6.68,27.39c-.64,2.95-2.44,4.1-5.38,3.46l-32.98-7.19ZM677.67,400.28c-4.16-6.01-5.39-12.86-3.71-20.57,1.68-7.7,5.64-13.37,11.89-16.99,6.25-3.62,13.23-4.6,20.93-2.92,7.7,1.68,13.64,5.46,17.82,11.36,4.17,5.89,5.42,12.7,3.74,20.4-1.68,7.71-5.66,13.43-11.93,17.16-6.28,3.73-13.27,4.77-20.97,3.09-7.71-1.68-13.64-5.53-17.79-11.53Z"/>
  </g>
</svg>